P2
4 4 255
165 241 145 98 
175 254 241 242 
245 175 246 246 
235 255 205 255 
